# xmcd
#
# Track frame offsets:
#	150
#	14777
#	28036
#	52709
#	70561
#	74279
#	90912
#
# Disc length: 1399 seconds
#
# Revision: 0
# Processed by: cddbd v1.5.2PL0 Copyright (c) Steve Scherf et al.
# Submitted via: EasyCDDAExtractor 12.0.4.1
#
DISCID=4e057507
DTITLE=Dasa Fon Flasa - Radsej sam ako v zlej spolocnosti
DYEAR=2012
DGENRE=Punk
TTITLE0=Kolkokrat
TTITLE1=Piesen kocovnikov
TTITLE2=Dusicky
TTITLE3=Muzika
TTITLE4=Afterparty
TTITLE5=Svetska slava
TTITLE6=Stereotypy
EXTD=
EXTT0=
EXTT1=
EXTT2=
EXTT3=
EXTT4=
EXTT5=
EXTT6=
PLAYORDER=
